<svg id="Layer_3" data-name="Layer 3" xmlns="http://www.w3.org/2000/svg" viewBox="0 0 289.22 453.41"><defs><style>.cls-1{fill:#868fb8;}</style></defs><title>logo</title><path class="cls-1" d="M142,0,41.89,206.11,98.41,316.35c-9.5-31.46,117.15-85.71,140.88-117.76Z"/><path class="cls-1" d="M167.58,453.41c19.14-12.42,32.73-25.18,33.7-49.05a47.62,47.62,0,0,0-17.18-39c-25.75-21-74.17-28.62-84.42-46.62"/><path class="cls-1" d="M183.78,311.71l104.44,7.84L261.58,446.41C280.55,356,251.93,331.8,183.78,311.71Z"/><path class="cls-1" d="M175,304.78l75.69-63.56-7.12-32.7C208,262.32,161.32,268.91,175,304.78Z"/><polygon class="cls-1" points="182.93 305.78 289.22 312.71 250.72 252.4 182.93 305.78"/><polygon class="cls-1" points="36.83 214.08 158.48 453.41 0 297.77 36.83 214.08"/></svg>