<svg xmlns="http://www.w3.org/2000/svg" viewBox="156.58698734144505 187.07317629161378 36.8652687549646 37.98370116420466">
  <path d="M183.94 192.71C182.78 190.79 180.41 188.39 174.5 188.09C168.59 187.78 160.52 193 158.42 200.51C156.33 208.03 158 215.67 165.47 220.1C172.94 224.52 185.64 220.88 189.6 214.9C193.56 208.93 182.2 206.45 185.7 208.31C189.2 210.18 180.74 215.21 173.72 213.9C166.7 212.59 164.28 207.63 164.4 202.35C164.51 197.08 168.8 191.67 175.38 190.99C179.76 190.54 182.97 191.83 185 194.88C185.07 194.71 184.72 193.99 183.94 192.71Z" fill="#8C5CB4"></path>
  <path d="M187.13 201.9C187.13 206.92 183.05 211 178.03 211C173 211 168.93 206.92 168.93 201.9C168.93 196.88 173 192.8 178.03 192.8C183.05 192.8 187.13 196.88 187.13 201.9Z" fill="#8C5CB4"></path>
</svg>